My Jigar Da Tukda song from the movie Ladies vs Ricky Bahl


Complete name : E:Music VideosOthersMy Jigar Da Tukda.mkv
Format : Matroska
Format version : Version 2
File size : 158 MiB
Duration : 4mn 20s
Overall bit rate : 5 101 Kbps
Encoded date : UTC 2012-01-09 09:46:41
Writing application : mkvmerge v4.9.1 ('Ich will') built on Jul 11 2011 23:53:15
Writing library : libebml v1.2.1 + libmatroska v1.1.1

Video
ID : 1
Format : AVC
Format/Info : Advanced Video Codec
Format profile : High@L4.1
Format settings, CABAC : Yes
Format settings, ReFrames : 9 frames
Codec ID : V_MPEG4/ISO/AVC
Duration : 4mn 20s
Bit rate : 4 551 Kbps
Width : 1 280 pixels
Height : 544 pixels
Display aspect ratio : 2.35:1
Frame rate : 23.976 fps
Color space : YUV
Chroma subsampling : 4:2:0
Bit depth : 8 bits
Scan type : Progressive
Bits/(Pixel*Frame) : 0.273
Stream size : 141 MiB (89%)
Title : KaMaL DDR
Language : Hindi
Default : Yes
Forced : No

Audio
ID : 2
Format : AC-3
Format/Info : Audio Coding 3
Mode extension : CM (complete main)
Codec ID : A_AC3
Duration : 4mn 20s
Bit rate mode : Constant
Bit rate : 448 Kbps
Channel(s) : 6 channels
Channel positions : Front: L C R, Side: L R, LFE
Sampling rate : 48.0 KHz
Bit depth : 16 bits
Compression mode : Lossy
Delay relative to video : 27ms
Stream size : 13.9 MiB (9%)
Title : KaMaL DDR
Language : Hindi
Default : Yes
Forced : No